<svg width="32" height="48" viewBox="0 0 32 48" fill="none" xmlns="http://www.w3.org/2000/svg">
<g id="envelope" fill="none">
<rect x="2.6" y="3.6" width="10.8" height="8.8" stroke="currentColor" stroke-width="1.2"/>
<path d="M3 4L8 9L13 4" stroke="currentColor" stroke-width="1.2"/>
</g>
<g transform="translate(16 0)">
<g id="github" fill="none">
<circle cx="8" cy="8" r="5.9" stroke="currentColor" stroke-width="1.2"/>
<path d="M9.55177 5.71578C9.04951 5.49383 7.13358 5.4348 6.42149 5.86769C5.7094 6.30057 5.60389 6.91891 5.61557 7.42116C5.62725 7.92341 5.68453 8.71645 6.12949 8.9863C6.84197 9.4184 7.51942 9.4184 8.02167 9.4184C8.52392 9.4184 9.10794 9.31335 9.70363 8.9863C10.2993 8.65926 10.4628 8.13365 10.4745 7.42116C10.4862 6.70867 10.054 5.93773 9.55177 5.71578Z" stroke="currentColor" stroke-width="1.2"/>
<path d="M5.18078 5.05414C5.17012 5.32085 5.30179 5.86518 5.40405 6.05195L7.02136 5.05414C6.77683 4.90743 6.48441 4.66486 6.03438 4.44063C5.81451 4.33109 5.46975 4.29394 5.31415 4.30729C5.27414 4.44511 5.19145 4.78743 5.18078 5.05414Z" fill="currentColor"/>
<path d="M10.8192 5.05414C10.8299 5.32085 10.6982 5.86518 10.596 6.05195L8.97864 5.05414C9.22317 4.90743 9.51559 4.66486 9.96562 4.44063C10.1855 4.33109 10.5302 4.29394 10.6859 4.30729C10.7259 4.44511 10.8085 4.78743 10.8192 5.05414Z" fill="currentColor"/>
<path d="M6.65975 10.9503C6.60281 11.5538 6.74991 13.1567 6.83058 13.8827L9.32165 13.7546C9.35961 12.9907 9.42984 11.3603 9.40706 10.9503C9.37859 10.4377 9.20778 9.61216 8.70956 9.49835C8.21134 9.38453 8.06899 9.3987 7.39996 9.49835C6.73092 9.59799 6.73093 10.1959 6.65975 10.9503Z" fill="currentColor"/>
<path d="M6.04203 11.4536L5.95148 11.9454L6.04203 11.4536ZM5.13507 10.6134L4.71904 10.8907L5.13507 10.6134ZM4.43759 9.49464C4.1659 9.44524 3.90561 9.62544 3.85621 9.89713C3.80681 10.1688 3.98701 10.4291 4.2587 10.4785L4.43759 9.49464ZM7.03078 10.6562C6.93259 10.7176 6.7525 10.813 6.55848 10.8827C6.3484 10.9582 6.20108 10.9745 6.13259 10.9619L5.95148 11.9454C6.28844 12.0074 6.64351 11.9148 6.89668 11.8238C7.16592 11.7271 7.40996 11.5985 7.56073 11.5042L7.03078 10.6562ZM6.13259 10.9619C6.03776 10.9444 5.94089 10.8823 5.83366 10.7559C5.71177 10.6122 5.65956 10.4987 5.55109 10.336L4.71904 10.8907C4.75419 10.9435 4.90205 11.2035 5.07103 11.4027C5.25467 11.6192 5.53947 11.8695 5.95148 11.9454L6.13259 10.9619ZM5.55109 10.336C5.30902 9.97292 4.93131 9.5844 4.43759 9.49464L4.2587 10.4785C4.35183 10.4954 4.5302 10.6075 4.71904 10.8907L5.55109 10.336Z" fill="currentColor"/>
</g>
</g>
<g transform="translate(0 16)">
<g id="instagram" fill="none">
<rect x="2.6" y="2.6" width="10.8" height="10.8" rx="3.4" stroke="currentColor" stroke-width="1.2"/>
<circle cx="11.0039" cy="5.00366" r="0.75" fill="currentColor"/>
<circle cx="8" cy="8" r="2.4" stroke="currentColor" stroke-width="1.2"/>
</g>
</g>
<g transform="translate(16 16)">
<g id="linkedin" fill="none">
<rect x="2.6" y="2.6" width="10.8" height="10.8" rx="3.4" stroke="currentColor" stroke-width="1.2"/>
<line x1="5.4" y1="11" x2="5.4" y2="7" stroke="currentColor" stroke-width="1.2"/>
<line x1="7.60117" y1="11" x2="7.60117" y2="7" stroke="currentColor" stroke-width="1.2"/>
<path d="M7.60986 8.99292C7.60986 8.49292 8.40986 7.49292 9.60986 7.49292C10.8099 7.49292 11.1099 8.49292 11.1099 8.99292V10.9929" stroke="currentColor" stroke-width="1.2"/>
<circle cx="5.39648" cy="5.47974" r="0.75" fill="currentColor"/>
</g>
</g>
<g transform="translate(0 32)">
<g id="twitter" fill="none" y="32">
<path d="M14 3.06678C13.4 3.36262 12.812 3.48277 12.2 3.6645C11.5274 2.90074 10.5302 2.85848 9.572 3.21953C8.6138 3.58058 7.9862 4.46328 8 5.47578V6.07955C6.053 6.12966 4.319 5.2373 3.2 3.6645C3.2 3.6645 0.6908 8.15226 5.6 10.3059C4.4768 11.0588 3.2 11.5134 2 11.5134C3.5 13.5 6.1274 13.547 8 13C10.148 12.3721 11.9336 10.1815 12.611 7.75498C12.8131 7.01699 12.9134 6.25455 12.9092 5.48907C12.908 5.33873 13.8152 3.81604 14 3.06678Z" stroke="currentColor" stroke-width="1.2" stroke-miterlimit="16" stroke-linecap="round"/>
</g>
</g>
<g transform="translate(16 32)">
<g id="discord" fill="none">
<path d="M1.87246 7.31916C2.26733 5.94286 3.23414 3.91497 3.23414 3.91497L5.95749 3.23413L6.63833 3.91497H9.36168L10.0425 3.23413L12.7659 3.91497C12.7659 3.91497 13.7327 5.94286 14.1276 7.31916C14.5736 8.87375 14.8084 11.4042 14.8084 11.4042C14.8084 11.4042 13.9088 12.0715 13.2525 12.3393C12.5666 12.6192 11.4042 12.7659 11.4042 12.7659L10.7234 11.4042C9.76757 11.7339 8.84307 11.9532 8.01316 11.9532C7.18325 11.9532 6.3026 11.69 5.27665 11.4042L4.59581 12.7659C4.59581 12.7659 3.48739 12.6002 2.82605 12.3393C2.14197 12.0695 1.19162 11.4042 1.19162 11.4042C1.19162 11.4042 1.42643 8.87375 1.87246 7.31916Z" stroke="currentColor" stroke-width="1.36168"/>
<circle cx="5.62684" cy="8.06064" r="1" fill="currentColor"/>
<circle cx="10.3522" cy="8.06064" r="1" fill="currentColor"/>
</g>
</g>
</svg>
